STARTFONT 2.1
FONT -sun-chevara-medium-r-normal--8-80-75-75-p-70-adobe-fontspecific
SIZE 8 75 75
FONTBOUNDINGBOX 17 12 -2 -3

STARTPROPERTIES 28
FOUNDRY "sun"
FAMILY_NAME "chevara"
WEIGHT_NAME "medium"
SLANT "r"
SETWIDTH_NAME "normal"
ADD_STYLE_NAME ""
PIXEL_SIZE 8
POINT_SIZE 80
RESOLUTION_X 75
RESOLUTION_Y 75
SPACING "p"
AVERAGE_WIDTH 70
CHARSET_REGISTRY "adobe"
CHARSET_ENCODING "fontspecific"
COPYRIGHT "© 1999 Sun Microsystems, Inc."
RAW_PIXELSIZE 1000
RAW_POINTSIZE 964
RAW_ASCENT 1047
RAW_DESCENT 285
RAW_AVERAGE_WIDTH 8445
FACE_NAME "ChevaraNormal"
_XMBDFED_INFO "Edited with xmbdfed 2.4."
WEIGHT 10
X_HEIGHT 0
QUAD_WIDTH 7
DEFAULT_CHAR 4
FONT_DESCENT 3
FONT_ASCENT 9
ENDPROPERTIES

CHARS 195

STARTCHAR char32
ENCODING 32
SWIDTH 43 0
DWIDTH 4 0
BBX 0 0 0 0
BITMAP
ENDCHAR

STARTCHAR char33
ENCODING 33
SWIDTH 32 0
DWIDTH 3 0
BBX 3 6 1 0
BITMAP
C0
E0
40
40
40
C0
ENDCHAR

STARTCHAR char34
ENCODING 34
SWIDTH 53 0
DWIDTH 5 0
BBX 4 3 1 3
BITMAP
F0
60
20
ENDCHAR

STARTCHAR char35
ENCODING 35
SWIDTH 53 0
DWIDTH 5 0
BBX 5 6 0 0
BITMAP
50
78
50
70
D0
50
ENDCHAR

STARTCHAR char36
ENCODING 36
SWIDTH 96 0
DWIDTH 9 0
BBX 7 8 2 -1
BITMAP
18
7E
DA
FE
7E
5A
EE
18
ENDCHAR

STARTCHAR char37
ENCODING 37
SWIDTH 30 0
DWIDTH 13 0
BBX 11 6 2 0
BITMAP
7900
D900
DAE0
75A0
09A0
08E0
ENDCHAR

STARTCHAR char38
ENCODING 38
SWIDTH 96 0
DWIDTH 9 0
BBX 8 6 2 0
BITMAP
3C
3C
37
5E
D4
7E
ENDCHAR

STARTCHAR char39
ENCODING 39
SWIDTH 21 0
DWIDTH 2 0
BBX 3 3 0 3
BITMAP
40
E0
40
ENDCHAR

STARTCHAR char40
ENCODING 40
SWIDTH 43 0
DWIDTH 4 0
BBX 3 6 1 0
BITMAP
60
40
C0
C0
40
20
ENDCHAR

STARTCHAR char41
ENCODING 41
SWIDTH 43 0
DWIDTH 4 0
BBX 3 6 1 0
BITMAP
C0
40
E0
E0
E0
80
ENDCHAR

STARTCHAR char42
ENCODING 42
SWIDTH 32 0
DWIDTH 3 0
BBX 2 3 1 3
BITMAP
80
40
C0
ENDCHAR

STARTCHAR char43
ENCODING 43
SWIDTH 64 0
DWIDTH 6 0
BBX 5 5 1 0
BITMAP
20
20
F8
20
20
ENDCHAR

STARTCHAR char44
ENCODING 44
SWIDTH 32 0
DWIDTH 3 0
BBX 3 3 0 -1
BITMAP
40
E0
40
ENDCHAR

STARTCHAR char45
ENCODING 45
SWIDTH 43 0
DWIDTH 4 0
BBX 3 1 1 2
BITMAP
E0
ENDCHAR

STARTCHAR char46
ENCODING 46
SWIDTH 32 0
DWIDTH 3 0
BBX 3 2 0 0
BITMAP
40
C0
ENDCHAR

STARTCHAR char47
ENCODING 47
SWIDTH 53 0
DWIDTH 5 0
BBX 5 6 1 0
BITMAP
10
10
20
40
40
80
ENDCHAR

STARTCHAR char48
ENCODING 48
SWIDTH 86 0
DWIDTH 8 0
BBX 7 6 2 0
BITMAP
7C
CC
CE
CA
CE
7C
ENDCHAR

STARTCHAR char49
ENCODING 49
SWIDTH 64 0
DWIDTH 6 0
BBX 5 6 1 0
BITMAP
F0
70
70
70
50
F8
ENDCHAR

STARTCHAR char50
ENCODING 50
SWIDTH 86 0
DWIDTH 8 0
BBX 7 6 1 0
BITMAP
7C
EA
6E
3A
2E
7E
ENDCHAR

STARTCHAR char51
ENCODING 51
SWIDTH 86 0
DWIDTH 8 0
BBX 7 6 1 0
BITMAP
7E
EE
5C
0E
EA
7C
ENDCHAR

STARTCHAR char52
ENCODING 52
SWIDTH 86 0
DWIDTH 8 0
BBX 6 6 2 0
BITMAP
08
58
F8
A8
FC
7C
ENDCHAR

STARTCHAR char53
ENCODING 53
SWIDTH 86 0
DWIDTH 8 0
BBX 7 6 1 0
BITMAP
7E
7C
78
0E
E6
7E
ENDCHAR

STARTCHAR char54
ENCODING 54
SWIDTH 86 0
DWIDTH 8 0
BBX 7 6 2 0
BITMAP
7C
C8
F8
CC
CA
7C
ENDCHAR

STARTCHAR char55
ENCODING 55
SWIDTH 75 0
DWIDTH 7 0
BBX 6 6 2 0
BITMAP
FC
F8
90
10
70
20
ENDCHAR

STARTCHAR char56
ENCODING 56
SWIDTH 86 0
DWIDTH 8 0
BBX 6 6 2 0
BITMAP
78
E4
F8
B4
8C
7C
ENDCHAR

STARTCHAR char57
ENCODING 57
SWIDTH 86 0
DWIDTH 8 0
BBX 7 6 1 0
BITMAP
3C
F6
F6
3E
36
3C
ENDCHAR

STARTCHAR char58
ENCODING 58
SWIDTH 32 0
DWIDTH 3 0
BBX 3 4 1 0
BITMAP
E0
40
40
E0
ENDCHAR

STARTCHAR char59
ENCODING 59
SWIDTH 32 0
DWIDTH 3 0
BBX 3 5 1 -1
BITMAP
C0
40
40
E0
40
ENDCHAR

STARTCHAR char60
ENCODING 60
SWIDTH 53 0
DWIDTH 5 0
BBX 5 4 0 0
BITMAP
30
40
60
18
ENDCHAR

STARTCHAR char61
ENCODING 61
SWIDTH 64 0
DWIDTH 6 0
BBX 6 3 1 1
BITMAP
FC
00
FC
ENDCHAR

STARTCHAR char62
ENCODING 62
SWIDTH 53 0
DWIDTH 5 0
BBX 5 4 0 0
BITMAP
60
10
30
C0
ENDCHAR

STARTCHAR char63
ENCODING 63
SWIDTH 53 0
DWIDTH 5 0
BBX 5 6 1 0
BITMAP
78
F8
78
20
40
60
ENDCHAR

STARTCHAR char64
ENCODING 64
SWIDTH 96 0
DWIDTH 9 0
BBX 6 6 1 0
BITMAP
38
FC
CC
CC
FC
38
ENDCHAR

STARTCHAR char65
ENCODING 65
SWIDTH 96 0
DWIDTH 9 0
BBX 8 6 2 0
BITMAP
10
18
24
3C
7E
EE
ENDCHAR

STARTCHAR char66
ENCODING 66
SWIDTH 96 0
DWIDTH 9 0
BBX 8 6 2 0
BITMAP
FE
67
7F
66
65
7F
ENDCHAR

STARTCHAR char67
ENCODING 67
SWIDTH 86 0
DWIDTH 8 0
BBX 7 6 2 0
BITMAP
7E
E2
C2
C0
C2
7C
ENDCHAR

STARTCHAR char68
ENCODING 68
SWIDTH 107 0
DWIDTH 10 0
BBX 8 6 2 0
BITMAP
FE
67
67
65
63
7E
ENDCHAR

STARTCHAR char69
ENCODING 69
SWIDTH 96 0
DWIDTH 9 0
BBX 7 6 2 0
BITMAP
FE
62
78
68
62
FE
ENDCHAR

STARTCHAR char70
ENCODING 70
SWIDTH 86 0
DWIDTH 8 0
BBX 7 6 2 0
BITMAP
7E
62
78
68
60
F8
ENDCHAR

STARTCHAR char71
ENCODING 71
SWIDTH 107 0
DWIDTH 10 0
BBX 9 6 2 0
BITMAP
3E00
6200
E000
AF80
6500
3F00
ENDCHAR

STARTCHAR char72
ENCODING 72
SWIDTH 9 0
DWIDTH 11 0
BBX 10 6 2 0
BITMAP
73C0
5300
7F00
7300
5300
FFC0
ENDCHAR

STARTCHAR char73
ENCODING 73
SWIDTH 64 0
DWIDTH 6 0
BBX 5 6 1 0
BITMAP
78
70
30
30
30
F0
ENDCHAR

STARTCHAR char74
ENCODING 74
SWIDTH 75 0
DWIDTH 7 0
BBX 6 6 1 0
BITMAP
1C
18
18
18
D8
70
ENDCHAR

STARTCHAR char75
ENCODING 75
SWIDTH 9 0
DWIDTH 11 0
BBX 10 6 2 0
BITMAP
F7C0
7200
7400
7A00
7500
FF80
ENDCHAR

STARTCHAR char76
ENCODING 76
SWIDTH 96 0
DWIDTH 9 0
BBX 7 6 2 0
BITMAP
F0
60
60
60
62
7E
ENDCHAR

STARTCHAR char77
ENCODING 77
SWIDTH 20 0
DWIDTH 12 0
BBX 11 6 2 0
BITMAP
F1E0
6AC0
5BC0
57C0
4DC0
E5E0
ENDCHAR

STARTCHAR char78
ENCODING 78
SWIDTH 107 0
DWIDTH 10 0
BBX 9 6 2 0
BITMAP
F780
7B00
5E00
4A00
4600
E200
ENDCHAR

STARTCHAR char79
ENCODING 79
SWIDTH 107 0
DWIDTH 10 0
BBX 8 6 2 0
BITMAP
7E
E3
E7
A7
65
3E
ENDCHAR

STARTCHAR char80
ENCODING 80
SWIDTH 96 0
DWIDTH 9 0
BBX 8 6 2 0
BITMAP
FE
67
65
7E
60
F8
ENDCHAR

STARTCHAR char81
ENCODING 81
SWIDTH 107 0
DWIDTH 10 0
BBX 8 7 2 -1
BITMAP
7E
E7
E7
A5
6B
3F
02
ENDCHAR

STARTCHAR char82
ENCODING 82
SWIDTH 96 0
DWIDTH 9 0
BBX 8 6 2 0
BITMAP
6E
76
76
7E
5A
E6
ENDCHAR

STARTCHAR char83
ENCODING 83
SWIDTH 96 0
DWIDTH 9 0
BBX 8 6 2 0
BITMAP
7E
C2
FE
7F
43
FE
ENDCHAR

STARTCHAR char84
ENCODING 84
SWIDTH 96 0
DWIDTH 9 0
BBX 8 6 1 0
BITMAP
FF
DD
9D
1C
1C
3C
ENDCHAR

STARTCHAR char85
ENCODING 85
SWIDTH 96 0
DWIDTH 9 0
BBX 8 6 2 0
BITMAP
FF
62
62
62
62
3C
ENDCHAR

STARTCHAR char86
ENCODING 86
SWIDTH 96 0
DWIDTH 9 0
BBX 8 6 2 0
BITMAP
F7
62
34
2C
18
08
ENDCHAR

STARTCHAR char87
ENCODING 87
SWIDTH 41 0
DWIDTH 14 0
BBX 13 6 2 0
BITMAP
FFB8
33A0
2DA0
1D60
0CC0
08C0
ENDCHAR

STARTCHAR char88
ENCODING 88
SWIDTH 107 0
DWIDTH 10 0
BBX 8 6 2 0
BITMAP
F6
74
38
0C
3A
67
ENDCHAR

STARTCHAR char89
ENCODING 89
SWIDTH 96 0
DWIDTH 9 0
BBX 8 6 2 0
BITMAP
F7
72
5C
38
28
38
ENDCHAR

STARTCHAR char90
ENCODING 90
SWIDTH 86 0
DWIDTH 8 0
BBX 7 6 1 0
BITMAP
FE
CE
14
28
52
7E
ENDCHAR

STARTCHAR char91
ENCODING 91
SWIDTH 53 0
DWIDTH 5 0
BBX 3 6 2 0
BITMAP
E0
C0
C0
C0
C0
E0
ENDCHAR

STARTCHAR char92
ENCODING 92
SWIDTH 21 0
DWIDTH 2 0
BBX 2 6 0 0
BITMAP
80
80
40
40
40
40
ENDCHAR

STARTCHAR char93
ENCODING 93
SWIDTH 53 0
DWIDTH 5 0
BBX 2 6 2 0
BITMAP
C0
C0
C0
C0
C0
C0
ENDCHAR

STARTCHAR char94
ENCODING 94
SWIDTH 0 0
DWIDTH 0 0
BBX 3 2 -1 6
BITMAP
E0
E0
ENDCHAR

STARTCHAR char95
ENCODING 95
SWIDTH 53 0
DWIDTH 5 0
BBX 5 1 0 -1
BITMAP
F8
ENDCHAR

STARTCHAR char96
ENCODING 96
SWIDTH 0 0
DWIDTH 0 0
BBX 1 2 -1 5
BITMAP
80
80
ENDCHAR

STARTCHAR char97
ENCODING 97
SWIDTH 86 0
DWIDTH 8 0
BBX 8 5 1 0
BITMAP
10
18
34
7C
EF
ENDCHAR

STARTCHAR char98
ENCODING 98
SWIDTH 86 0
DWIDTH 8 0
BBX 6 5 2 0
BITMAP
FC
6C
F8
EC
F8
ENDCHAR

STARTCHAR char99
ENCODING 99
SWIDTH 75 0
DWIDTH 7 0
BBX 7 5 1 0
BITMAP
3C
E4
E0
E6
38
ENDCHAR

STARTCHAR char100
ENCODING 100
SWIDTH 86 0
DWIDTH 8 0
BBX 7 5 2 0
BITMAP
FC
EE
EE
AA
FC
ENDCHAR

STARTCHAR char101
ENCODING 101
SWIDTH 86 0
DWIDTH 8 0
BBX 6 5 2 0
BITMAP
FC
EC
F0
EC
FC
ENDCHAR

STARTCHAR char102
ENCODING 102
SWIDTH 75 0
DWIDTH 7 0
BBX 7 5 1 0
BITMAP
7E
56
78
60
38
ENDCHAR

STARTCHAR char103
ENCODING 103
SWIDTH 86 0
DWIDTH 8 0
BBX 8 5 1 0
BITMAP
3E
62
AF
66
3E
ENDCHAR

STARTCHAR char104
ENCODING 104
SWIDTH 96 0
DWIDTH 9 0
BBX 8 5 2 0
BITMAP
FF
EE
FE
AA
EF
ENDCHAR

STARTCHAR char105
ENCODING 105
SWIDTH 53 0
DWIDTH 5 0
BBX 5 5 1 0
BITMAP
F0
60
60
60
F8
ENDCHAR

STARTCHAR char106
ENCODING 106
SWIDTH 64 0
DWIDTH 6 0
BBX 6 5 1 0
BITMAP
3C
30
30
F0
F0
ENDCHAR

STARTCHAR char107
ENCODING 107
SWIDTH 96 0
DWIDTH 9 0
BBX 8 5 2 0
BITMAP
FF
E8
F8
AC
FE
ENDCHAR

STARTCHAR char108
ENCODING 108
SWIDTH 75 0
DWIDTH 7 0
BBX 7 5 1 0
BITMAP
70
70
70
56
FE
ENDCHAR

STARTCHAR char109
ENCODING 109
SWIDTH 107 0
DWIDTH 10 0
BBX 9 5 2 0
BITMAP
6380
7500
5700
5B00
DB00
ENDCHAR

STARTCHAR char110
ENCODING 110
SWIDTH 86 0
DWIDTH 8 0
BBX 7 5 2 0
BITMAP
EC
F4
9C
8C
84
ENDCHAR

STARTCHAR char111
ENCODING 111
SWIDTH 86 0
DWIDTH 8 0
BBX 8 5 1 0
BITMAP
0E
76
A7
65
3E
ENDCHAR

STARTCHAR char112
ENCODING 112
SWIDTH 86 0
DWIDTH 8 0
BBX 6 5 2 0
BITMAP
F8
EC
FC
A0
F0
ENDCHAR

STARTCHAR char113
ENCODING 113
SWIDTH 86 0
DWIDTH 8 0
BBX 8 6 1 -1
BITMAP
3E
66
A5
6F
3F
02
ENDCHAR

STARTCHAR char114
ENCODING 114
SWIDTH 86 0
DWIDTH 8 0
BBX 7 5 2 0
BITMAP
FC
FC
E8
B8
EE
ENDCHAR

STARTCHAR char115
ENCODING 115
SWIDTH 86 0
DWIDTH 8 0
BBX 7 5 1 0
BITMAP
7E
E2
7C
4E
7E
ENDCHAR

STARTCHAR char116
ENCODING 116
SWIDTH 75 0
DWIDTH 7 0
BBX 7 5 1 0
BITMAP
FE
BA
38
38
38
ENDCHAR

STARTCHAR char117
ENCODING 117
SWIDTH 86 0
DWIDTH 8 0
BBX 7 5 1 0
BITMAP
FE
62
62
62
3C
ENDCHAR

STARTCHAR char118
ENCODING 118
SWIDTH 86 0
DWIDTH 8 0
BBX 8 5 1 0
BITMAP
F7
32
2C
18
08
ENDCHAR

STARTCHAR char119
ENCODING 119
SWIDTH 9 0
DWIDTH 11 0
BBX 10 5 2 0
BITMAP
FEC0
6D80
3A80
2B00
1100
ENDCHAR

STARTCHAR char120
ENCODING 120
SWIDTH 86 0
DWIDTH 8 0
BBX 8 5 1 0
BITMAP
76
34
18
2C
FF
ENDCHAR

STARTCHAR char121
ENCODING 121
SWIDTH 86 0
DWIDTH 8 0
BBX 7 5 1 0
BITMAP
76
34
14
18
3C
ENDCHAR

STARTCHAR char122
ENCODING 122
SWIDTH 75 0
DWIDTH 7 0
BBX 6 5 1 0
BITMAP
FC
98
38
54
FC
ENDCHAR

STARTCHAR char123
ENCODING 123
SWIDTH 32 0
DWIDTH 3 0
BBX 2 8 0 -2
BITMAP
40
40
40
80
40
40
40
40
ENDCHAR

STARTCHAR char124
ENCODING 124
SWIDTH 21 0
DWIDTH 2 0
BBX 1 6 1 0
BITMAP
80
80
80
80
80
80
ENDCHAR

STARTCHAR char125
ENCODING 125
SWIDTH 32 0
DWIDTH 3 0
BBX 2 8 0 -2
BITMAP
C0
40
40
40
40
40
40
C0
ENDCHAR

STARTCHAR char126
ENCODING 126
SWIDTH 0 0
DWIDTH 0 0
BBX 5 2 -2 6
BITMAP
D8
A0
ENDCHAR

STARTCHAR char128
ENCODING 128
SWIDTH 86 0
DWIDTH 8 0
BBX 7 6 2 0
BITMAP
7E
E2
C2
C0
C2
7C
ENDCHAR

STARTCHAR char130
ENCODING 130
SWIDTH 32 0
DWIDTH 3 0
BBX 3 3 0 -1
BITMAP
40
E0
40
ENDCHAR

STARTCHAR char131
ENCODING 131
SWIDTH 0 0
DWIDTH 0 0
BBX 3 2 -1 6
BITMAP
E0
E0
ENDCHAR

STARTCHAR char132
ENCODING 132
SWIDTH 53 0
DWIDTH 5 0
BBX 4 2 1 -1
BITMAP
F0
50
ENDCHAR

STARTCHAR char133
ENCODING 133
SWIDTH 96 0
DWIDTH 9 0
BBX 7 1 1 0
BITMAP
92
ENDCHAR

STARTCHAR char134
ENCODING 134
SWIDTH 53 0
DWIDTH 5 0
BBX 5 5 1 1
BITMAP
70
20
F8
A8
70
ENDCHAR

STARTCHAR char136
ENCODING 136
SWIDTH 0 0
DWIDTH 0 0
BBX 3 2 -1 5
BITMAP
C0
C0
ENDCHAR

STARTCHAR char139
ENCODING 139
SWIDTH 32 0
DWIDTH 3 0
BBX 1 3 1 1
BITMAP
80
80
80
ENDCHAR

STARTCHAR char140
ENCODING 140
SWIDTH 41 0
DWIDTH 14 0
BBX 12 6 3 0
BITMAP
3FF0
E510
E7C0
C740
A530
7FF0
ENDCHAR

STARTCHAR char145
ENCODING 145
SWIDTH 21 0
DWIDTH 2 0
BBX 3 3 0 3
BITMAP
40
E0
40
ENDCHAR

STARTCHAR char146
ENCODING 146
SWIDTH 21 0
DWIDTH 2 0
BBX 3 2 0 4
BITMAP
E0
40
ENDCHAR

STARTCHAR char147
ENCODING 147
SWIDTH 53 0
DWIDTH 5 0
BBX 4 3 1 3
BITMAP
A0
F0
A0
ENDCHAR

STARTCHAR char148
ENCODING 148
SWIDTH 53 0
DWIDTH 5 0
BBX 4 3 1 3
BITMAP
F0
60
20
ENDCHAR

STARTCHAR char149
ENCODING 149
SWIDTH 32 0
DWIDTH 3 0
BBX 2 2 0 2
BITMAP
C0
C0
ENDCHAR

STARTCHAR char150
ENCODING 150
SWIDTH 86 0
DWIDTH 8 0
BBX 6 1 2 2
BITMAP
FC
ENDCHAR

STARTCHAR char151
ENCODING 151
SWIDTH 64 0
DWIDTH 6 0
BBX 6 1 1 2
BITMAP
FC
ENDCHAR

STARTCHAR char152
ENCODING 152
SWIDTH 0 0
DWIDTH 0 0
BBX 4 2 -2 5
BITMAP
D0
A0
ENDCHAR

STARTCHAR char153
ENCODING 153
SWIDTH 30 0
DWIDTH 13 0
BBX 11 6 2 3
BITMAP
FC60
AE40
2640
25C0
2540
6560
ENDCHAR

STARTCHAR char155
ENCODING 155
SWIDTH 32 0
DWIDTH 3 0
BBX 1 3 1 1
BITMAP
80
80
80
ENDCHAR

STARTCHAR char156
ENCODING 156
SWIDTH 20 0
DWIDTH 12 0
BBX 10 5 2 0
BITMAP
3FC0
6640
A780
E640
3FC0
ENDCHAR

STARTCHAR char159
ENCODING 159
SWIDTH 96 0
DWIDTH 9 0
BBX 8 8 2 0
BITMAP
3C
14
F6
72
5C
38
28
38
ENDCHAR

STARTCHAR char160
ENCODING 160
SWIDTH 86 0
DWIDTH 8 0
BBX 0 0 0 0
BITMAP
ENDCHAR

STARTCHAR char161
ENCODING 161
SWIDTH 32 0
DWIDTH 3 0
BBX 2 6 1 0
BITMAP
C0
C0
40
C0
C0
C0
ENDCHAR

STARTCHAR char162
ENCODING 162
SWIDTH 75 0
DWIDTH 7 0
BBX 6 7 1 -1
BITMAP
10
3C
F4
F4
F4
3C
10
ENDCHAR

STARTCHAR char163
ENCODING 163
SWIDTH 86 0
DWIDTH 8 0
BBX 7 6 2 0
BITMAP
7E
A6
E4
F8
E6
FE
ENDCHAR

STARTCHAR char164
ENCODING 164
SWIDTH 0 0
DWIDTH 0 0
BBX 1 2 0 6
BITMAP
80
80
ENDCHAR

STARTCHAR char165
ENCODING 165
SWIDTH 0 0
DWIDTH 0 0
BBX 4 2 -2 6
BITMAP
50
60
ENDCHAR

STARTCHAR char167
ENCODING 167
SWIDTH 75 0
DWIDTH 7 0
BBX 6 9 2 -3
BITMAP
F8
E8
D8
B4
FC
EC
9C
CC
30
ENDCHAR

STARTCHAR char168
ENCODING 168
SWIDTH 0 0
DWIDTH 0 0
BBX 3 2 -1 5
BITMAP
C0
E0
ENDCHAR

STARTCHAR char169
ENCODING 169
SWIDTH 9 0
DWIDTH 11 0
BBX 10 9 2 0
BITMAP
1E00
2100
4E80
B240
A040
A040
5280
6D80
1E00
ENDCHAR

STARTCHAR char170
ENCODING 170
SWIDTH 0 0
DWIDTH 0 0
BBX 4 2 -2 6
BITMAP
F0
50
ENDCHAR

STARTCHAR char171
ENCODING 171
SWIDTH 43 0
DWIDTH 4 0
BBX 3 3 1 1
BITMAP
A0
A0
A0
ENDCHAR

STARTCHAR char172
ENCODING 172
SWIDTH 107 0
DWIDTH 10 0
BBX 8 4 2 0
BITMAP
FF
01
01
01
ENDCHAR

STARTCHAR char174
ENCODING 174
SWIDTH 9 0
DWIDTH 11 0
BBX 10 9 2 0
BITMAP
1C00
2300
5E80
9240
9C40
9440
5B80
4180
3E00
ENDCHAR

STARTCHAR char176
ENCODING 176
SWIDTH 64 0
DWIDTH 6 0
BBX 5 4 1 5
BITMAP
20
D8
88
70
ENDCHAR

STARTCHAR char177
ENCODING 177
SWIDTH 86 0
DWIDTH 8 0
BBX 7 8 1 0
BITMAP
10
10
10
FE
10
10
10
FE
ENDCHAR

STARTCHAR char180
ENCODING 180
SWIDTH 0 0
DWIDTH 0 0
BBX 1 2 0 5
BITMAP
80
80
ENDCHAR

STARTCHAR char182
ENCODING 182
SWIDTH 64 0
DWIDTH 6 0
BBX 3 7 1 -1
BITMAP
E0
E0
E0
60
60
60
60
ENDCHAR

STARTCHAR char183
ENCODING 183
SWIDTH 21 0
DWIDTH 2 0
BBX 1 1 1 2
BITMAP
80
ENDCHAR

STARTCHAR char184
ENCODING 184
SWIDTH 0 0
DWIDTH 0 0
BBX 1 2 0 -2
BITMAP
80
80
ENDCHAR

STARTCHAR char186
ENCODING 186
SWIDTH 0 0
DWIDTH 0 0
BBX 5 2 -2 6
BITMAP
D8
A0
ENDCHAR

STARTCHAR char187
ENCODING 187
SWIDTH 43 0
DWIDTH 4 0
BBX 3 3 1 1
BITMAP
A0
60
A0
ENDCHAR

STARTCHAR char191
ENCODING 191
SWIDTH 53 0
DWIDTH 5 0
BBX 5 6 1 0
BITMAP
20
20
60
78
F8
78
ENDCHAR

STARTCHAR char192
ENCODING 192
SWIDTH 96 0
DWIDTH 9 0
BBX 8 8 2 0
BITMAP
10
10
10
18
24
3C
7E
EE
ENDCHAR

STARTCHAR char193
ENCODING 193
SWIDTH 96 0
DWIDTH 9 0
BBX 8 8 2 0
BITMAP
08
10
10
18
24
3C
7E
EE
ENDCHAR

STARTCHAR char194
ENCODING 194
SWIDTH 96 0
DWIDTH 9 0
BBX 8 8 2 0
BITMAP
18
18
10
18
34
34
4E
EE
ENDCHAR

STARTCHAR char195
ENCODING 195
SWIDTH 96 0
DWIDTH 9 0
BBX 8 8 2 0
BITMAP
36
48
10
18
34
34
4C
EE
ENDCHAR

STARTCHAR char196
ENCODING 196
SWIDTH 96 0
DWIDTH 9 0
BBX 8 8 2 0
BITMAP
2C
2C
10
18
2C
34
4E
FE
ENDCHAR

STARTCHAR char197
ENCODING 197
SWIDTH 96 0
DWIDTH 9 0
BBX 8 8 2 0
BITMAP
18
18
10
18
34
3C
4E
CE
ENDCHAR

STARTCHAR char198
ENCODING 198
SWIDTH 41 0
DWIDTH 14 0
BBX 12 6 2 0
BITMAP
07F0
0D10
1FC0
1F40
2510
FFF0
ENDCHAR

STARTCHAR char199
ENCODING 199
SWIDTH 86 0
DWIDTH 8 0
BBX 7 8 2 -2
BITMAP
7E
E2
C2
C0
C2
6C
1C
08
ENDCHAR

STARTCHAR char200
ENCODING 200
SWIDTH 96 0
DWIDTH 9 0
BBX 7 8 2 0
BITMAP
10
10
FE
62
78
68
62
FE
ENDCHAR

STARTCHAR char201
ENCODING 201
SWIDTH 96 0
DWIDTH 9 0
BBX 7 8 2 0
BITMAP
10
10
FE
62
78
68
62
FE
ENDCHAR

STARTCHAR char202
ENCODING 202
SWIDTH 96 0
DWIDTH 9 0
BBX 7 8 2 0
BITMAP
38
28
FE
62
78
68
62
FE
ENDCHAR

STARTCHAR char203
ENCODING 203
SWIDTH 96 0
DWIDTH 9 0
BBX 7 8 2 0
BITMAP
3C
28
FE
72
78
74
72
FE
ENDCHAR

STARTCHAR char204
ENCODING 204
SWIDTH 64 0
DWIDTH 6 0
BBX 5 8 1 0
BITMAP
60
20
78
50
30
30
30
F0
ENDCHAR

STARTCHAR char205
ENCODING 205
SWIDTH 64 0
DWIDTH 6 0
BBX 5 8 1 0
BITMAP
30
20
78
50
30
30
30
F0
ENDCHAR

STARTCHAR char206
ENCODING 206
SWIDTH 64 0
DWIDTH 6 0
BBX 5 8 1 0
BITMAP
70
50
78
50
30
30
30
F0
ENDCHAR

STARTCHAR char207
ENCODING 207
SWIDTH 64 0
DWIDTH 6 0
BBX 5 8 1 0
BITMAP
F8
70
78
50
30
30
30
F0
ENDCHAR

STARTCHAR char209
ENCODING 209
SWIDTH 107 0
DWIDTH 10 0
BBX 9 8 2 0
BITMAP
3200
2C00
F780
6900
5E00
4A00
4600
E200
ENDCHAR

STARTCHAR char210
ENCODING 210
SWIDTH 107 0
DWIDTH 10 0
BBX 8 8 2 0
BITMAP
10
08
7E
E7
E7
A7
65
3E
ENDCHAR

STARTCHAR char211
ENCODING 211
SWIDTH 107 0
DWIDTH 10 0
BBX 8 8 2 0
BITMAP
08
08
7E
E7
E7
A7
65
3E
ENDCHAR

STARTCHAR char212
ENCODING 212
SWIDTH 107 0
DWIDTH 10 0
BBX 8 8 2 0
BITMAP
1C
1C
26
65
E7
A7
65
3E
ENDCHAR

STARTCHAR char213
ENCODING 213
SWIDTH 107 0
DWIDTH 10 0
BBX 8 8 2 0
BITMAP
32
2C
36
65
E7
A7
65
3E
ENDCHAR

STARTCHAR char214
ENCODING 214
SWIDTH 107 0
DWIDTH 10 0
BBX 8 8 2 0
BITMAP
14
14
7E
E7
E7
A7
65
3E
ENDCHAR

STARTCHAR char216
ENCODING 216
SWIDTH 107 0
DWIDTH 10 0
BBX 8 6 2 0
BITMAP
7E
E7
EF
B7
65
FE
ENDCHAR

STARTCHAR char217
ENCODING 217
SWIDTH 96 0
DWIDTH 9 0
BBX 8 8 2 0
BITMAP
10
10
EF
62
62
62
62
3C
ENDCHAR

STARTCHAR char218
ENCODING 218
SWIDTH 96 0
DWIDTH 9 0
BBX 8 8 2 0
BITMAP
08
10
EF
62
62
62
62
3C
ENDCHAR

STARTCHAR char219
ENCODING 219
SWIDTH 96 0
DWIDTH 9 0
BBX 8 8 2 0
BITMAP
18
28
FF
62
62
62
62
3C
ENDCHAR

STARTCHAR char220
ENCODING 220
SWIDTH 96 0
DWIDTH 9 0
BBX 8 8 2 0
BITMAP
3C
14
EF
62
62
62
62
7C
ENDCHAR

STARTCHAR char223
ENCODING 223
SWIDTH 30 0
DWIDTH 13 0
BBX 13 5 1 0
BITMAP
7DF8
C790
FDF0
4D28
FDF8
ENDCHAR

STARTCHAR char224
ENCODING 224
SWIDTH 86 0
DWIDTH 8 0
BBX 8 7 1 0
BITMAP
10
10
10
28
34
7C
EF
ENDCHAR

STARTCHAR char225
ENCODING 225
SWIDTH 86 0
DWIDTH 8 0
BBX 8 7 1 0
BITMAP
08
08
10
28
34
7C
EF
ENDCHAR

STARTCHAR char226
ENCODING 226
SWIDTH 86 0
DWIDTH 8 0
BBX 8 7 1 0
BITMAP
18
18
10
18
3C
74
EF
ENDCHAR

STARTCHAR char227
ENCODING 227
SWIDTH 86 0
DWIDTH 8 0
BBX 8 7 1 0
BITMAP
16
28
10
18
3C
74
EF
ENDCHAR

STARTCHAR char228
ENCODING 228
SWIDTH 86 0
DWIDTH 8 0
BBX 7 7 1 0
BITMAP
1C
3E
10
18
3C
36
EE
ENDCHAR

STARTCHAR char229
ENCODING 229
SWIDTH 86 0
DWIDTH 8 0
BBX 7 7 1 0
BITMAP
18
18
10
18
3C
74
CE
ENDCHAR

STARTCHAR char230
ENCODING 230
SWIDTH 20 0
DWIDTH 12 0
BBX 10 5 2 0
BITMAP
0FC0
1EC0
1F00
3AC0
4FC0
ENDCHAR

STARTCHAR char231
ENCODING 231
SWIDTH 75 0
DWIDTH 7 0
BBX 7 7 1 -2
BITMAP
3C
E4
A0
66
38
18
08
ENDCHAR

STARTCHAR char232
ENCODING 232
SWIDTH 86 0
DWIDTH 8 0
BBX 6 7 2 0
BITMAP
20
20
FC
F0
F0
EC
FC
ENDCHAR

STARTCHAR char233
ENCODING 233
SWIDTH 86 0
DWIDTH 8 0
BBX 6 7 2 0
BITMAP
10
20
FC
F0
F0
EC
FC
ENDCHAR

STARTCHAR char234
ENCODING 234
SWIDTH 86 0
DWIDTH 8 0
BBX 6 7 2 0
BITMAP
30
30
FC
F0
F0
A4
FC
ENDCHAR

STARTCHAR char235
ENCODING 235
SWIDTH 86 0
DWIDTH 8 0
BBX 6 7 2 0
BITMAP
30
38
FC
EC
F0
A4
FC
ENDCHAR

STARTCHAR char236
ENCODING 236
SWIDTH 53 0
DWIDTH 5 0
BBX 5 7 1 0
BITMAP
40
40
F0
60
60
60
F8
ENDCHAR

STARTCHAR char237
ENCODING 237
SWIDTH 53 0
DWIDTH 5 0
BBX 5 7 1 0
BITMAP
60
40
F0
60
60
60
F8
ENDCHAR

STARTCHAR char238
ENCODING 238
SWIDTH 53 0
DWIDTH 5 0
BBX 5 7 1 0
BITMAP
60
60
F0
60
60
60
F8
ENDCHAR

STARTCHAR char239
ENCODING 239
SWIDTH 53 0
DWIDTH 5 0
BBX 5 7 1 0
BITMAP
60
70
F0
60
70
50
F8
ENDCHAR

STARTCHAR char241
ENCODING 241
SWIDTH 86 0
DWIDTH 8 0
BBX 7 7 2 0
BITMAP
28
78
EC
F4
9C
8C
84
ENDCHAR

STARTCHAR char242
ENCODING 242
SWIDTH 86 0
DWIDTH 8 0
BBX 8 7 1 0
BITMAP
10
10
0E
76
A7
65
3E
ENDCHAR

STARTCHAR char243
ENCODING 243
SWIDTH 86 0
DWIDTH 8 0
BBX 8 7 1 0
BITMAP
08
08
0E
76
A7
65
3E
ENDCHAR

STARTCHAR char244
ENCODING 244
SWIDTH 86 0
DWIDTH 8 0
BBX 8 7 1 0
BITMAP
08
1C
0E
76
A7
65
3E
ENDCHAR

STARTCHAR char245
ENCODING 245
SWIDTH 86 0
DWIDTH 8 0
BBX 8 7 1 0
BITMAP
16
28
0E
76
A7
65
3E
ENDCHAR

STARTCHAR char246
ENCODING 246
SWIDTH 86 0
DWIDTH 8 0
BBX 8 7 1 0
BITMAP
14
1C
3E
66
A5
67
3E
ENDCHAR

STARTCHAR char247
ENCODING 247
SWIDTH 86 0
DWIDTH 8 0
BBX 7 5 1 1
BITMAP
10
00
FE
00
10
ENDCHAR

STARTCHAR char248
ENCODING 248
SWIDTH 86 0
DWIDTH 8 0
BBX 8 5 1 0
BITMAP
3E
6E
BD
67
FC
ENDCHAR

STARTCHAR char249
ENCODING 249
SWIDTH 86 0
DWIDTH 8 0
BBX 7 7 1 0
BITMAP
10
10
EE
62
22
22
3C
ENDCHAR

STARTCHAR char250
ENCODING 250
SWIDTH 86 0
DWIDTH 8 0
BBX 7 7 1 0
BITMAP
08
08
FE
62
22
22
3C
ENDCHAR

STARTCHAR char251
ENCODING 251
SWIDTH 86 0
DWIDTH 8 0
BBX 7 7 1 0
BITMAP
18
28
FE
62
22
22
3C
ENDCHAR

STARTCHAR char252
ENCODING 252
SWIDTH 86 0
DWIDTH 8 0
BBX 7 7 1 0
BITMAP
14
1E
FA
62
22
22
3C
ENDCHAR

STARTCHAR char255
ENCODING 255
SWIDTH 86 0
DWIDTH 8 0
BBX 7 7 1 0
BITMAP
18
1C
76
34
1C
18
3C
ENDCHAR
ENDFONT
